<?xml version="1.0" standalone="no"?>
<!DOCTYPE svg PUBLIC "-//W3C//DTD SVG 1.1//EN" "http://www.w3.org/Graphics/SVG/1.1/DTD/svg11.dtd" >
<svg xmlns="http://www.w3.org/2000/svg">
<metadata></metadata>
<defs>
<font id="dax_probold" horiz-adv-x="573" >
<font-face units-per-em="2048" ascent="1608" descent="-440" />
<missing-glyph horiz-adv-x="548" />
<glyph horiz-adv-x="0" />
<glyph horiz-adv-x="0" />
<glyph unicode="&#xd;" horiz-adv-x="681" />
<glyph unicode=" "  horiz-adv-x="548" />
<glyph unicode="&#x09;" horiz-adv-x="548" />
<glyph unicode="&#xa0;" horiz-adv-x="548" />
<glyph unicode="!" horiz-adv-x="667" d="M156 1409h381l-68 -891h-244zM164 164q0 76 53 129t129 53t129 -53t53 -129t-53 -129t-129 -53t-129 53t-53 129z" />
<glyph unicode="&#x22;" horiz-adv-x="921" d="M119 1356q43 74 139 74q94 0 137 -74l-55 -565h-166zM526 1356q43 74 138 74q96 0 139 -74l-55 -565h-166z" />
<glyph unicode="#" horiz-adv-x="1384" d="M111 424v164h227l35 258h-205v164h225l56 399h200l-53 -399h272l54 399h202l-55 -399h205v-164h-225l-35 -258h203v-164h-226l-57 -424h-203l57 424h-272l-57 -424h-201l57 424h-204zM539 588h272l35 258h-273z" />
<glyph unicode="$" horiz-adv-x="1079" d="M94 59l82 228q111 -66 264 -66q90 0 143.5 44t53.5 120q0 59 -39 105.5t-98.5 74t-127 66.5t-127 82t-98 122.5t-38.5 184.5q0 156 97 264.5t263 136.5v246h176v-237q162 -8 287 -80l-76 -203q-100 57 -225 57q-88 0 -141.5 -41t-53.5 -116q0 -70 55.5 -119t134.5 -85 t158.5 -82t135 -135t55.5 -216q0 -158 -94.5 -270.5t-257.5 -147.5v-264h-174v249q-215 6 -355 82z" />
<glyph unicode="%" horiz-adv-x="1863" d="M96 993.5q0 188.5 83 313.5t245 125t245 -125t83 -313.5t-83 -313.5t-245 -125t-245 125t-83 313.5zM311 997q0 -301 113 -301t113 301t-113 301t-113 -301zM606 31l484 1409l165 -60l-483 -1409zM1112 415.5q0 188.5 83 313.5t245 125t244.5 -125t82.5 -313.5 t-82.5 -313.5t-244.5 -125t-245 125t-83 313.5zM1327 420q0 -301 112.5 -301t112.5 301t-112.5 301t-112.5 -301z" />
<glyph unicode="&#x26;" horiz-adv-x="1331" d="M78 383q0 137 85 234.5t226 152.5v4q-229 84 -229 303q0 162 125 258.5t319 96.5q201 0 348 -82l-94 -187q-86 47 -192 47q-84 0 -135.5 -43t-51.5 -116.5t57.5 -122.5t151.5 -49q123 0 303 39l281 59l43 -209l-221 -39v-668q-162 -84 -451 -84q-270 0 -417.5 102.5 t-147.5 303.5zM416 395q0 -100 61.5 -158.5t179.5 -58.5q72 0 123 23v501q-190 -29 -277 -103.5t-87 -203.5z" />
<glyph unicode="'" horiz-adv-x="514" d="M119 1356q43 74 139 74q94 0 137 -74l-55 -565h-166z" />
<glyph unicode="(" horiz-adv-x="772" d="M98.5 586q-0.5 631 481.5 1075l151 -102q-147 -201 -225 -453t-78 -520.5t78 -520t225 -452.5l-151 -102q-481 444 -481.5 1075z" />
<glyph unicode=")" horiz-adv-x="772" d="M41 -387q147 201 225 452.5t78 520t-78 520.5t-225 453l152 102q481 -444 481 -1075t-481 -1075z" />
<glyph unicode="*" horiz-adv-x="948" d="M92 1458q0 49 35 83t84 34t83 -34t34 -83t-34 -84t-83 -35t-84 35t-35 84zM193 1151q0 49 33.5 84t82.5 35t84 -35t35 -84t-35 -83t-84 -34t-82.5 34t-33.5 83zM356 1651q0 49 35 83.5t84 34.5t83 -34.5t34 -83.5t-34 -83t-83 -34t-84 34t-35 83zM381 1376 q0 39 27.5 65.5t66.5 26.5t65.5 -26.5t26.5 -65.5t-26.5 -66.5t-65.5 -27.5t-66.5 27.5t-27.5 66.5zM520 1151q0 49 35 84t84 35t83 -35t34 -84t-34 -83t-83 -34t-84 34t-35 83zM621 1458q0 49 34.5 83t83.5 34t83 -34t34 -83t-34 -84t-83 -35t-83.5 35t-34.5 84z" />
<glyph unicode="+" horiz-adv-x="1089" d="M111 557v217h317v320h234v-320h317v-217h-317v-317h-234v317h-317z" />
<glyph unicode="," horiz-adv-x="602" d="M8 -297l172 545q61 96 185 96q121 0 139 -96l-307 -545h-189z" />
<glyph unicode="-" horiz-adv-x="729" d="M98 549v233h533v-233h-533z" />
<glyph unicode="." horiz-adv-x="577" d="M106 164q0 76 53.5 129t129.5 53t129 -53t53 -129t-53 -129t-129 -53t-129.5 53t-53.5 129z" />
<glyph unicode="/" horiz-adv-x="960" d="M-29 -346l695 2003l256 -94l-693 -2003z" />
<glyph unicode="0" horiz-adv-x="1183" d="M96 704.5q0 198.5 49.5 358.5t164 264.5t282.5 104.5t282.5 -104.5t163.5 -264.5t49 -358.5t-49 -358.5t-163.5 -264.5t-282.5 -104.5t-282.5 104.5t-164 264.5t-49.5 358.5zM412 711q0 -518 180 -518q178 0 178 518t-178 518q-180 0 -180 -518z" />
<glyph unicode="1" horiz-adv-x="888" d="M27 1198q174 23 298 81t167 130h231v-1409h-324v1073q-113 -53 -331 -65z" />
<glyph unicode="2" horiz-adv-x="1058" d="M23 0l503 735q96 141 97 264q0 94 -56.5 147.5t-173.5 53.5q-129 0 -252 -55l-75 203q168 84 395 84q250 0 372.5 -110t122.5 -290q0 -160 -186 -399l-285 -369h482v-264h-944z" />
<glyph unicode="3" horiz-adv-x="1062" d="M29 57l86 217q117 -61 276 -61q113 0 180.5 57.5t67.5 155.5q0 115 -85 171t-230 56h-31v170q150 14 231.5 73.5t81.5 152.5q0 76 -53 116.5t-143 40.5q-137 0 -263 -57l-77 203q172 80 393 80q213 0 335 -90.5t122 -254.5q0 -102 -63.5 -177.5t-158.5 -114.5v-4 q123 -41 200 -132.5t77 -232.5q0 -201 -147.5 -325t-383.5 -124q-256 0 -415 80z" />
<glyph unicode="4" horiz-adv-x="1116" d="M70 279v188l548 942h314v-954h104v-176h-104v-279h-301v279h-561zM272 455h359v446q0 86 8 213h-4q-39 -100 -96 -203z" />
<glyph unicode="5" horiz-adv-x="1062" d="M29 57l86 217q113 -61 276 -61q117 0 182.5 61.5t65.5 153.5q0 238 -328 238q-102 0 -207 -17l86 760h723v-262h-499l-31 -301q41 4 61 4q264 0 397.5 -115.5t133.5 -308.5q0 -190 -147.5 -319.5t-385.5 -129.5q-254 0 -413 80z" />
<glyph unicode="6" horiz-adv-x="1153" d="M94 526q0 356 219 596t584 310l61 -213q-373 -98 -501 -375q68 20 137 20q219 0 345 -115.5t126 -310.5q0 -201 -126 -331t-355 -130q-236 0 -363 149.5t-127 399.5zM393 514q0 -330 193 -330q86 0 132 72.5t46 185.5q0 260 -238 260q-55 0 -116 -20q-16 -72 -17 -168z " />
<glyph unicode="7" horiz-adv-x="1042" d="M51 1147v262h967l-178 -432q-229 -555 -320 -977h-387l506 1147h-588z" />
<glyph unicode="8" horiz-adv-x="1144" d="M88 350q0 131 71.5 215t211.5 166q-119 76 -181.5 155t-62.5 191q0 158 126 256.5t318 98.5q195 0 321 -97.5t126 -255.5q0 -113 -61.5 -187.5t-182.5 -148.5q135 -82 209 -172t74 -219q0 -170 -134.5 -272.5t-351.5 -102.5q-211 0 -347 98.5t-136 274.5zM367 358 q0 -76 58 -130t142 -54q86 0 141.5 51t55.5 131q0 86 -45 143.5t-152 123.5q-106 -61 -153 -120t-47 -145zM399 1083q0 -74 41 -123t142 -112q94 61 136 112t42 123q0 76 -51.5 123t-128.5 47q-80 0 -130.5 -47t-50.5 -123z" />
<glyph unicode="9" horiz-adv-x="1153" d="M88 971q0 201 126 331t355 130q236 0 363 -149.5t127 -399.5q0 -356 -219 -596t-586 -310l-59 213q371 96 499 375q-68 -20 -135 -20q-219 0 -345 115.5t-126 310.5zM389 971q0 -260 238 -260q49 0 116 22q17 72 17 166q0 156 -49 243t-146 87q-86 0 -131 -72t-45 -186z " />
<glyph unicode=":" horiz-adv-x="598" d="M127 164q0 76 53 129t129 53t129.5 -53t53.5 -129t-53.5 -129t-129.5 -53t-129 53t-53 129zM127 807q0 76 53 129t129 53t129.5 -53t53.5 -129t-53.5 -129t-129.5 -53t-129 53t-53 129z" />
<glyph unicode=";" horiz-adv-x="610" d="M14 -297l172 545q61 96 185 96q121 0 139 -96l-305 -545h-191zM139 805q0 76 53.5 129t129 53t129 -53t53.5 -129t-53.5 -128t-129 -52t-129 52t-53.5 128z" />
<glyph unicode="&#x3c;" horiz-adv-x="1089" d="M111 569v193l868 356v-241l-592 -209v-4l592 -209v-240z" />
<glyph unicode="=" horiz-adv-x="1089" d="M111 340v217h868v-217h-868zM111 776v217h868v-217h-868z" />
<glyph unicode="&#x3e;" horiz-adv-x="1089" d="M111 215v240l591 209v4l-591 209v241l868 -356v-193z" />
<glyph unicode="?" horiz-adv-x="933" d="M82 1350q145 82 352 82q219 0 345 -93.5t126 -253.5q0 -123 -93 -212t-214 -125l-16 -230h-244l-25 322q106 23 180 77t74 136q0 160 -196 159q-104 0 -207 -51zM279 164q0 76 53 129t129 53t129 -53t53 -129t-53 -129t-129 -53t-129 53t-53 129z" />
<glyph unicode="@" horiz-adv-x="1859" d="M86 438q0 260 118 484.5t349 367t528 142.5q317 0 505 -185.5t188 -474.5q0 -328 -228.5 -562.5t-552.5 -234.5q-223 0 -348 136.5t-125 351.5q0 246 140.5 423t371.5 177q184 0 303 -100l-116 -770q152 61 252 215.5t100 359.5q0 221 -129 360.5t-367 139.5 q-246 0 -429 -121t-270 -302t-87 -390q0 -307 179 -494.5t480 -187.5q410 0 715 264l106 -133q-162 -143 -380 -222t-451 -79q-373 0 -612.5 227t-239.5 608zM729 473q0 -150 67.5 -234.5t200.5 -84.5h13l106 720q-45 25 -108 25q-125 0 -202 -128t-77 -298z" />
<glyph unicode="A" horiz-adv-x="1277" d="M8 0l459 1409h346l457 -1409h-348l-84 313h-426l-86 -313h-318zM465 504h323l-120 459q-16 61 -37 182h-4q-14 -109 -35 -182z" />
<glyph unicode="B" horiz-adv-x="1230" d="M133 57v1295q178 80 436 80q266 0 404.5 -105.5t138.5 -273.5q0 -117 -69.5 -198t-180.5 -112v-4q123 -33 207 -130t84 -222q0 -205 -150.5 -307.5t-420.5 -102.5q-272 0 -449 80zM449 193q47 -18 126 -19q246 0 246 227q0 129 -71.5 190.5t-223.5 61.5h-77v-460z M449 811h77q141 0 206 54t65 167q0 213 -228 213q-61 0 -120 -18v-416z" />
<glyph unicode="C" horiz-adv-x="1007" d="M90 704.5q0 143.5 33 270.5t98.5 230.5t175 165t250.5 61.5q184 0 307 -82l-71 -203q-76 45 -170 45q-76 0 -132.5 -41t-87 -111.5t-46 -153.5t-15.5 -177q0 -125 26.5 -228.5t92 -176.5t160.5 -73q92 0 166 45l77 -215q-125 -84 -307 -84q-141 0 -250.5 61.5t-175 165 t-98.5 230.5t-33 270.5z" />
<glyph unicode="D" horiz-adv-x="1273" d="M133 57v1295q174 80 420 80q301 0 466 -191.5t165 -536t-165 -536t-466 -191.5q-246 0 -420 80zM461 223q39 -16 108 -16q281 0 281 504q0 501 -280 501h-1q-70 0 -108 -16v-973z" />
<glyph unicode="E" horiz-adv-x="940" d="M133 0v1409h719v-223h-387v-359h338v-217h-338v-387h387v-223h-719z" />
<glyph unicode="F" horiz-adv-x="925" d="M133 0v1409h717v-223h-385v-359h338v-217h-338v-610h-332z" />
<glyph unicode="G" horiz-adv-x="1261" d="M90 702q0 319 179.5 524.5t496.5 205.5q209 0 360 -84l-90 -205q-102 53 -239 53q-182 0 -277.5 -138t-95.5 -376q0 -223 83 -348t212 -125q72 0 110 16v404h-180v198h490v-770q-147 -80 -404 -80q-311 0 -478 197t-167 528z" />
<glyph unicode="H" horiz-adv-x="1286" d="M133 0v1409h332v-582h356v582h332v-1409h-332v610h-356v-610h-332z" />
<glyph unicode="I" horiz-adv-x="606" d="M137 0v1409h332v-1409h-332z" />
<glyph unicode="J" horiz-adv-x="606" d="M-76 -221q213 63 213 371v1259h332v-1231q0 -272 -139.5 -440t-405.5 -191v232z" />
<glyph unicode="K" horiz-adv-x="1228" d="M137 0v1409h328v-635h4l371 635h344l-420 -649l446 -760h-376l-365 698h-4v-698h-328z" />
<glyph unicode="L" horiz-adv-x="888" d="M137 0v1409h332v-1186h358v-223h-690z" />
<glyph unicode="M" horiz-adv-x="1636" d="M80 0l149 1409h326l223 -786q25 -88 39 -181h4q16 111 37 181l223 786h326l149 -1409h-311l-65 811q-8 111 -9 170h-4q-23 -111 -41 -170l-239 -811h-168l-234 811q-18 61 -43 170h-4v-25q0 -90 -6 -145l-74 -811h-278z" />
<glyph unicode="N" horiz-adv-x="1339" d="M133 0v1409h291l432 -731q39 -66 74 -141h4q-8 94 -8 159v713h280v-1409h-254l-471 795q-43 74 -73 147h-5q8 -113 9 -166v-776h-279z" />
<glyph unicode="O" horiz-adv-x="1282" d="M90 704.5q0 327.5 139.5 527.5t411.5 200t411.5 -200t139.5 -527.5t-139.5 -527.5t-411.5 -200t-411.5 200t-139.5 527.5zM424 711q0 -496 217 -496t217 496q0 498 -217 498q-217 -1 -217 -498z" />
<glyph unicode="P" horiz-adv-x="1179" d="M133 0v1352q180 80 428 80q279 0 414 -124t135 -327t-142.5 -330t-420.5 -127q-39 0 -88 8v-532h-326zM459 723q41 -6 88 -6q246 0 246 266q0 260 -230 260q-59 0 -104 -16v-504z" />
<glyph unicode="Q" horiz-adv-x="1282" d="M90 704.5q0 327.5 139.5 527.5t411.5 200t411.5 -199.5t139.5 -527.5q0 -461 -246 -635l236 -277l-244 -190l-197 385q-51 -10 -100 -11q-272 0 -411.5 200t-139.5 527.5zM424 711q0 -496 217 -496t217 496q0 498 -217 498q-217 -1 -217 -498z" />
<glyph unicode="R" horiz-adv-x="1218" d="M135 0v1352q176 80 422 80q272 0 418.5 -107.5t146.5 -320.5q0 -137 -85 -232.5t-234 -138.5v-4q74 -68 137 -189l238 -440h-367l-190 422q-61 135 -162 180v-602h-324zM459 737q31 -8 88 -8q117 0 183.5 74.5t66.5 187.5q0 252 -232 252q-63 0 -106 -16v-490z" />
<glyph unicode="S" horiz-adv-x="1034" d="M68 59l84 228q119 -66 260 -66q92 0 145 43t53 115q0 59 -39 104t-97 74t-126.5 69t-127 84t-97.5 123.5t-39 186.5q0 182 131 297t344 115q203 0 346 -82l-74 -203q-100 57 -227 57q-90 0 -142 -41t-52 -114q0 -59 39.5 -104.5t100 -72t130.5 -65.5t130 -83t100 -124.5 t40 -189.5q0 -188 -135 -310.5t-356 -122.5q-240 0 -391 82z" />
<glyph unicode="T" horiz-adv-x="966" d="M63 1186v223h840v-223h-254v-1186h-332v1186h-254z" />
<glyph unicode="U" horiz-adv-x="1257" d="M133 416v993h332v-997q0 -84 50 -133.5t126 -49.5q74 0 124 49.5t50 133.5v997h309v-993q0 -201 -137 -321t-358 -120t-358.5 120t-137.5 321z" />
<glyph unicode="V" horiz-adv-x="1163" d="M14 1409h351l198 -817q16 -70 31 -184h4q14 113 33 184l205 817h315l-424 -1409h-289z" />
<glyph unicode="W" horiz-adv-x="1722" d="M43 1409h328l149 -823q12 -74 21 -164h4q6 70 26 164l187 823h235l181 -823q16 -76 26 -164h4q6 74 21 164l153 823h301l-317 -1409h-293l-180 741q-14 53 -25 152h-4q-10 -98 -24 -152l-181 -741h-295z" />
<glyph unicode="X" horiz-adv-x="1148" d="M14 0l379 717l-346 692h352l183 -444h4l194 444h322l-344 -666l377 -743h-369l-199 481h-4l-209 -481h-340z" />
<glyph unicode="Y" horiz-adv-x="1089" d="M4 1409h348l203 -532h4l213 532h315l-376 -817v-592h-332v592z" />
<glyph unicode="Z" horiz-adv-x="976" d="M35 0l450 1186h-403v223h817l-434 -1186h442v-223h-872z" />
<glyph unicode="[" horiz-adv-x="720" d="M131 -440v2048h522v-178h-241v-1690h241v-180h-522z" />
<glyph unicode="\" horiz-adv-x="960" d="M39 1563l256 94l694 -2003l-258 -94z" />
<glyph unicode="]" horiz-adv-x="720" d="M68 -260h241v1690h-241v178h522v-2048h-522v180z" />
<glyph unicode="^" horiz-adv-x="1036" d="M98 1024l301 358q47 57 119 57.5t119 -57.5l301 -358l-127 -131l-293 276l-293 -276z" />
<glyph unicode="_" horiz-adv-x="1064" d="M-20 -154h1105v-155h-1105v155z" />
<glyph unicode="`" d="M10 1501q41 55 140 55q90 0 155 -43l144 -292h-177z" />
<glyph unicode="a" horiz-adv-x="1110" d="M72 328q0 98 47 170.5t136 116.5t193.5 69t241.5 37v49q0 154 -190 154q-152 0 -295 -70l-70 188q188 84 412 84q442 0 442 -403v-664q-158 -82 -432 -82q-238 0 -361.5 89.5t-123.5 261.5zM371 340q0 -184 202 -184q76 0 117 20v395q-164 -16 -241.5 -71.5t-77.5 -159.5 z" />
<glyph unicode="b" horiz-adv-x="1167" d="M121 59v1549h319v-527q84 39 193 39q207 0 329.5 -143t122.5 -385q0 -293 -146 -454t-419 -161q-246 0 -399 82zM440 186q39 -16 99 -16q231 0 231 389q0 377 -217 377q-57 0 -113 -25v-725z" />
<glyph unicode="c" horiz-adv-x="884" d="M82 553q0 264 131 418.5t338 154.5q170 0 278 -79l-67 -177q-55 43 -137 43q-98 0 -157.5 -95t-59.5 -259t59 -259t158 -95q80 0 135 43l69 -191q-109 -80 -278 -80q-209 0 -339 155t-130 421z" />
<glyph unicode="d" horiz-adv-x="1167" d="M82 537q0 258 133 419.5t365 161.5q76 0 149 -18v508h318v-1549q-160 -82 -431 -82q-254 0 -394 145.5t-140 414.5zM397 559q0 -381 234 -381q53 1 98 19v729q-43 12 -90 12q-242 0 -242 -379z" />
<glyph unicode="e" horiz-adv-x="1142" d="M82 555q0 262 134 416.5t372 154.5q229 0 351 -142t122 -400q0 -25 -2 -47l-664 -95q16 -117 88 -181t189 -64q156 0 278 63l74 -201q-164 -82 -403 -82q-258 0 -398.5 159t-140.5 419zM373 598l385 59q-4 283 -183 283q-96 0 -149 -85t-53 -228v-29z" />
<glyph unicode="f" horiz-adv-x="722" d="M66 899v205h118v113q0 186 107.5 290.5t298.5 104.5q37 0 86 -6v-205q-20 2 -31 2q-141 0 -141 -178v-121h172v-205h-172v-899h-320v899h-118z" />
<glyph unicode="g" horiz-adv-x="1167" d="M82 535q0 283 150.5 437t426.5 154q233 0 388 -79v-1033q0 -231 -130.5 -353t-359.5 -122q-258 0 -412 84l82 207q123 -66 273 -66q229 0 229 220v49q-74 -35 -192 -35q-205 0 -330 145.5t-125 391.5zM397 553q0 -369 226 -369q61 0 106 25v713q-41 18 -100 18 q-231 0 -232 -387z" />
<glyph unicode="h" horiz-adv-x="1185" d="M121 0v1608h319v-543q113 53 238 53q197 0 292 -98t95 -254v-766h-320v756q0 168 -165 168q-76 0 -140 -35v-889h-319z" />
<glyph unicode="i" d="M117 1421.5q0 63.5 49 106.5t120.5 43t121 -43t49.5 -106.5t-50.5 -107.5t-120 -44t-119.5 44t-50 107.5zM127 0v1104h319v-1104h-319z" />
<glyph unicode="j" horiz-adv-x="577" d="M-51 -238q98 43 140 129t42 236v977h320v-938q0 -270 -129 -428t-373 -189v213zM121 1421.5q0 63.5 49 106.5t120.5 43t121 -44.5t49.5 -105.5q0 -63 -50.5 -107t-119.5 -44q-72 0 -121 44t-49 107.5z" />
<glyph unicode="k" horiz-adv-x="1142" d="M125 0v1608h317v-1010h4l318 506h338l-373 -518l406 -586h-363l-326 539h-4v-539h-317z" />
<glyph unicode="l" d="M127 0v1608h319v-1608h-319z" />
<glyph unicode="m" horiz-adv-x="1787" d="M121 0v1042q195 82 428 82q221 0 346 -108q140 108 340 108h4q215 0 321.5 -101t106.5 -273v-750h-313v752q0 176 -166 176q-84 0 -137 -58v-870h-314v766q0 162 -170 162q-80 0 -135 -23v-905h-311z" />
<glyph unicode="n" horiz-adv-x="1185" d="M121 0v1044q188 80 446 80q498 0 498 -379v-745h-320v748q0 92 -41.5 136t-136.5 44q-66 0 -127 -23v-905h-319z" />
<glyph unicode="o" horiz-adv-x="1159" d="M82 553q0 258 129 415.5t368.5 157.5t368.5 -157.5t129 -415.5q0 -260 -129 -418t-368.5 -158t-368.5 158t-129 418zM401 559q0 -375 178.5 -375t178.5 375q0 371 -178.5 371t-178.5 -371z" />
<glyph unicode="p" horiz-adv-x="1167" d="M121 -440v1487q172 79 412 79h6q260 0 403 -145.5t143 -419.5q0 -264 -133 -419.5t-352 -155.5q-111 0 -160 18v-444h-319zM440 188q41 -12 84 -12q246 0 246 381q0 190 -54 285.5t-179 95.5q-53 0 -97 -16v-734z" />
<glyph unicode="q" horiz-adv-x="1167" d="M82 530q0 283 150.5 439.5t426.5 156.5q233 0 388 -79v-1487h-318v458q-64 -32 -181 -32h-7q-209 0 -334 149.5t-125 394.5zM397 551q0 -373 221 -373q66 0 111 25v721q-43 16 -100 16q-231 0 -232 -389z" />
<glyph unicode="r" horiz-adv-x="735" d="M121 0v1044q170 82 448 82q76 0 142 -8l-58 -221q-51 27 -116 27q-63 0 -97 -17v-907h-319z" />
<glyph unicode="s" horiz-adv-x="913" d="M61 57l84 197q109 -63 215 -64q68 0 110 35t42 88q0 51 -44 88t-106.5 64t-125 59.5t-106.5 100t-44 163.5q0 154 110.5 246t274.5 92q203 0 338 -79l-76 -177q-98 57 -192 58q-66 0 -102 -33t-36 -84q0 -49 45.5 -85t109 -62.5t127 -60.5t108.5 -102.5t45 -164.5 q0 -158 -119 -258.5t-318 -100.5q-211 0 -340 80z" />
<glyph unicode="t" horiz-adv-x="745" d="M66 899v205h118v235l320 84v-319h172v-205h-172v-588q0 -112 102 -112h2q37 0 68 12v-197q-55 -30 -155 -30h-7q-158 0 -244 85t-86 242v588h-118z" />
<glyph unicode="u" horiz-adv-x="1171" d="M121 367v737h319v-752q0 -162 164 -162q72 0 127 25v889h320v-1043q-178 -84 -451 -84q-242 0 -360.5 94.5t-118.5 295.5z" />
<glyph unicode="v" horiz-adv-x="1091" d="M29 1104h344l155 -641q18 -78 27 -172h4q6 94 29 172l168 641h309l-365 -1104h-307z" />
<glyph unicode="w" horiz-adv-x="1654" d="M45 1104h326l127 -641q14 -68 18 -164h4q8 80 29 164l168 641h260l156 -641q14 -61 24 -164h4q10 98 23 164l137 641h291l-307 -1104h-295l-156 610q-16 68 -25 140h-4q-6 -74 -22 -140l-158 -610h-293z" />
<glyph unicode="x" horiz-adv-x="1073" d="M16 0l351 561l-316 543h334l164 -330h4l168 330h301l-313 -522l348 -582h-352l-179 354h-4l-178 -354h-328z" />
<glyph unicode="y" horiz-adv-x="1091" d="M29 1104h344l153 -660q20 -84 25 -170h4q12 96 31 170l170 660h309l-514 -1544h-334l182 440z" />
<glyph unicode="z" horiz-adv-x="901" d="M51 0l377 899h-342v205h739l-368 -899h377v-205h-783z" />
<glyph unicode="{" horiz-adv-x="808" d="M86 496v178q139 12 139 188v336q0 199 114 304.5t320 105.5h66v-172q-219 0 -219 -234v-328q0 -227 -154 -286v-4q154 -59 154 -287v-330q0 -231 219 -231v-176h-66q-207 0 -320.5 105.5t-113.5 303.5v340q0 174 -139 187z" />
<glyph unicode="|" horiz-adv-x="509" d="M131 -440v2048h248v-2048h-248z" />
<glyph unicode="}" horiz-adv-x="808" d="M84 -264q219 0 219 231v330q0 227 154 287v4q-154 59 -154 286v328q0 233 -219 234v172h66q207 0 320.5 -105.5t113.5 -304.5v-336q0 -176 139 -188v-178q-139 -12 -139 -187v-340q0 -199 -114 -304t-320 -105h-66v176z" />
<glyph unicode="~" horiz-adv-x="1036" d="M98 573q16 139 82 224.5t182 85.5q74 0 156 -63.5t139 -63.5q90 0 115 127l166 -64q-16 -139 -81.5 -223t-182.5 -84q-74 0 -156 63.5t-139 63.5q-90 0 -115 -129z" />
<glyph unicode="&#xa2;" horiz-adv-x="911" d="M102 713q0 197 96.5 321.5t254.5 157.5v217h165v-209q125 -6 213 -63l-65 -166q-55 35 -131 35q-104 0 -158.5 -77t-54.5 -212q0 -139 55 -216t158 -77q72 0 131 37l70 -178q-82 -59 -218 -66v-217h-165v225q-162 33 -256.5 158t-94.5 330z" />
<glyph unicode="&#xa3;" horiz-adv-x="1155" d="M111 0q225 258 225 512q0 61 -12 117h-201v205h141q-29 92 -28 174q0 201 125.5 312.5t334.5 111.5q207 0 351 -80l-70 -207q-100 53 -215 53q-104 0 -162.5 -61.5t-58.5 -167.5q0 -53 12 -135h334v-205h-297q6 -49 6 -109q0 -135 -74 -256h527v-264h-938z" />
<glyph unicode="&#xa5;" horiz-adv-x="1298" d="M92 1409h328l239 -573h5l249 573h293l-250 -502h195v-133h-262l-88 -178h350v-133h-350v-463h-303v463h-351v133h351l-88 178h-263v133h195z" />
<glyph unicode="&#xa8;" d="M-35 1358q0 53 39 92t92.5 39t92 -39t38.5 -92t-38.5 -92t-92 -39t-92.5 39t-39 92zM346 1358q0 53 39 92t92 39t92 -39t39 -92t-39 -92t-92 -39t-92 39t-39 92z" />
<glyph unicode="&#xa9;" horiz-adv-x="1650" d="M92 704.5q0 301.5 215 515.5t518 214t518.5 -214t215.5 -515.5t-215.5 -515.5t-518.5 -214t-518 214t-215 515.5zM266 706.5q0 -241.5 163 -412.5t396.5 -171t396 171t162.5 412.5t-162.5 412.5t-396 171t-396.5 -171t-163 -412.5zM489 711q0 166 91.5 283.5t253.5 117.5 q111 0 182 -45l-37 -102q-43 25 -113 24q-102 0 -152 -80t-50 -196q0 -115 53 -195t149 -80q63 0 109 25l41 -109q-68 -45 -182 -45q-162 0 -253.5 118t-91.5 284z" />
<glyph unicode="&#xab;" horiz-adv-x="1077" d="M74 684l284 494l179 -101l-226 -393l226 -391l-179 -103zM520 684l285 494l178 -101l-225 -393l225 -391l-178 -103z" />
<glyph unicode="&#xad;" horiz-adv-x="729" d="M98 549v233h533v-233h-533z" />
<glyph unicode="&#xae;" horiz-adv-x="1650" d="M92 704.5q0 301.5 215 515.5t518 214t518.5 -214t215.5 -515.5t-215.5 -515.5t-518.5 -214t-518 214t-215 515.5zM266 706.5q0 -241.5 163 -412.5t396.5 -171t396 171t162.5 412.5t-162.5 412.5t-396 171t-396.5 -171t-163 -412.5zM578 332v745q90 43 225 43 q301 0 301 -231q0 -76 -50 -130t-134 -77v-4q35 -29 75 -100l138 -246h-185l-112 237q-39 78 -97 101v-338h-161zM739 737q14 -4 54 -4q70 0 108.5 42t38.5 108q0 143 -133 143q-37 0 -68 -10v-279z" />
<glyph unicode="&#xb4;" d="M125 1221l143 292q66 43 156 43q98 0 139 -55l-262 -280h-176z" />
<glyph unicode="&#xb8;" d="M12 -426l51 107q68 -6 107 -7q178 0 178 70q0 57 -121 57q-37 0 -110 -6l45 96q68 6 141 7q260 0 260 -150q0 -90 -99 -137t-282 -47q-68 0 -170 10z" />
<glyph unicode="&#xbb;" horiz-adv-x="1077" d="M94 293l225 391l-225 393l178 101l285 -494l-285 -494zM541 293l225 391l-225 393l178 101l285 -494l-285 -494z" />
<glyph unicode="&#x2c6;" d="M-10 1290l207 215q37 39 90 39t90 -39l207 -215l-90 -84l-207 160l-207 -160z" />
<glyph unicode="&#x2da;" d="M102 1397q0 76 54.5 130t130 54t130 -54t54.5 -130t-54.5 -129.5t-130 -53.5t-130 53.5t-54.5 129.5zM207 1397q0 -35 23.5 -58.5t56 -23.5t56.5 23.5t24 58.5t-24 59.5t-56.5 24.5t-56 -24.5t-23.5 -59.5z" />
<glyph unicode="&#x2dc;" d="M-16 1266q27 209 188 209q55 0 115.5 -42t99.5 -42q63 0 78 86l125 -43q-27 -211 -191 -211q-55 0 -114.5 42t-98.5 42q-63 0 -77 -84z" />
<glyph unicode="&#x400;" horiz-adv-x="940" d="M133 0v1409h719v-223h-387v-359h338v-217h-338v-387h387v-223h-719zM193 1804q41 55 139 56q90 0 155 -43l144 -293h-176z" />
<glyph unicode="&#x401;" horiz-adv-x="940" d="M133 0v1409h719v-223h-387v-359h338v-217h-338v-387h387v-223h-719zM170 1661q0 53 39 92t92 39t92 -39t39 -92t-39 -92t-92 -39t-92 39t-39 92zM549 1661q0 53 39 92t92 39t92 -39t39 -92t-39 -92t-92 -39t-92 39t-39 92z" />
<glyph unicode="&#x402;" horiz-adv-x="1462" d="M66 1186v223h1011v-223h-424v-330q100 53 226 53q244 0 370.5 -159.5t126.5 -405.5q0 -238 -138 -445.5t-384 -301.5l-104 215q141 51 215.5 199.5t74.5 320.5q0 164 -61 268.5t-182 104.5q-82 0 -144 -37v-668h-331v1186h-256z" />
<glyph unicode="&#x403;" horiz-adv-x="958" d="M137 0v1409h760v-223h-428v-1186h-332zM391 1526l144 293q66 43 155 43q100 -1 139 -56l-262 -280h-176z" />
<glyph unicode="&#x404;" horiz-adv-x="1071" d="M90 704.5q0 319.5 149.5 523.5t438.5 204q195 0 336 -82l-78 -203q-84 45 -201 45q-137 0 -210.5 -100.5t-92.5 -264.5h447v-217h-447q14 -168 88 -273.5t213 -105.5q113 0 197 48l84 -218q-145 -84 -336 -84q-289 0 -438.5 204t-149.5 523.5z" />
<glyph unicode="&#x405;" horiz-adv-x="1034" d="M68 59l84 228q119 -66 260 -66q92 0 145 43t53 115q0 59 -39 104t-97 74t-126.5 69t-127 84t-97.5 123.5t-39 186.5q0 182 131 297t344 115q203 0 346 -82l-74 -203q-100 57 -227 57q-90 0 -142 -41t-52 -114q0 -59 39.5 -104.5t100 -72t130.5 -65.5t130 -83t100 -124.5 t40 -189.5q0 -188 -135 -310.5t-356 -122.5q-240 0 -391 82z" />
<glyph unicode="&#x406;" horiz-adv-x="606" d="M137 0v1409h332v-1409h-332z" />
<glyph unicode="&#x407;" horiz-adv-x="606" d="M-16 1661q0 53 38.5 92t92 39t92.5 -39t39 -92t-39 -92t-92.5 -39t-92 39t-38.5 92zM137 0v1409h332v-1409h-332zM360 1661q0 53 39 92t92.5 39t92.5 -39t39 -92t-39 -92t-92.5 -39t-92.5 39t-39 92z" />
<glyph unicode="&#x408;" horiz-adv-x="606" d="M-76 -221q213 63 213 371v1259h332v-1231q0 -272 -139.5 -440t-405.5 -191v232z" />
<glyph unicode="&#x409;" horiz-adv-x="1966" d="M14 225q70 39 116 98.5t70.5 147.5t35 163t20.5 200l43 575h838l37 -547q84 25 182 25q246 0 388 -113t142 -340q0 -217 -149.5 -337t-405.5 -120q-246 0 -428 80l-74 1135h-229l-27 -361q-12 -170 -35.5 -287.5t-72.5 -235.5t-140.5 -204t-226.5 -147zM1186 676l33 -483 q55 -18 110 -19q113 0 170 69.5t57 190.5q0 262 -233 262q-66 0 -137 -20z" />
<glyph unicode="&#x40a;" horiz-adv-x="1894" d="M133 0v1409h324v-582h350v582h323v-543q78 20 158 21q246 0 386.5 -115t140.5 -338q0 -219 -151 -338t-407 -119q-274 0 -450 80v553h-350v-610h-324zM1130 193q45 -18 125 -19q113 0 171.5 68.5t58.5 191.5q0 262 -230 262q-72 0 -125 -18v-485z" />
<glyph unicode="&#x40b;" horiz-adv-x="1452" d="M66 1186v223h1011v-223h-424v-330q111 53 256 53q199 0 308.5 -102t109.5 -297v-510h-332v510q0 92 -47 143.5t-139 51.5q-88 0 -156 -37v-668h-331v1186h-256z" />
<glyph unicode="&#x40c;" horiz-adv-x="1257" d="M137 0v1409h328v-639h4l383 639h348l-434 -643q199 -121 315 -408l148 -358h-373l-100 295q-109 311 -291 399v-694h-328zM524 1526l144 293q66 43 155 43q99 -1 140 -56l-263 -280h-176z" />
<glyph unicode="&#x40d;" horiz-adv-x="1296" d="M133 0v1409h291v-745q0 -111 -6 -166h4q31 86 63 153l387 758h291v-1409h-293v782q0 100 9 168h-5q-33 -86 -67 -153l-406 -797h-268zM348 1806q41 55 139 56q90 0 156 -43l143 -293h-176z" />
<glyph unicode="&#x40e;" horiz-adv-x="1179" d="M49 1409h348q51 -432 219 -752h5q145 350 192 752h317q-61 -516 -325 -991l-232 -418h-370l243 414q-332 455 -397 995zM317 1823l129 20q8 -74 50.5 -113.5t108 -39.5t106.5 39.5t49 113.5l131 -20q0 -137 -78 -219t-209 -82t-209 82t-78 219z" />
<glyph unicode="&#x40f;" horiz-adv-x="1282" d="M133 0v1409h332v-1186h352v1186h332v-1409h-383l-12 -332h-224l-14 332h-383z" />
<glyph unicode="&#x410;" horiz-adv-x="1277" d="M8 0l459 1409h346l457 -1409h-348l-84 313h-426l-86 -313h-318zM465 504h323l-120 459q-16 61 -37 182h-4q-14 -109 -35 -182z" />
<glyph unicode="&#x411;" horiz-adv-x="1228" d="M133 57v1352h897v-223h-573v-344q82 20 161 20q248 0 389.5 -109.5t141.5 -330.5q0 -215 -151.5 -330t-409.5 -115q-276 0 -455 80zM457 193q47 -18 129 -19q115 0 174 65.5t59 182.5q0 250 -233 250q-78 0 -129 -19v-460z" />
<glyph unicode="&#x412;" horiz-adv-x="1230" d="M133 57v1295q178 80 436 80q266 0 404.5 -105.5t138.5 -273.5q0 -117 -69.5 -198t-180.5 -112v-4q123 -33 207 -130t84 -222q0 -205 -150.5 -307.5t-420.5 -102.5q-272 0 -449 80zM449 193q47 -18 126 -19q246 0 246 227q0 129 -71.5 190.5t-223.5 61.5h-77v-460z M449 811h77q141 0 206 54t65 167q0 213 -228 213q-61 0 -120 -18v-416z" />
<glyph unicode="&#x413;" horiz-adv-x="958" d="M137 0v1409h760v-223h-428v-1186h-332z" />
<glyph unicode="&#x414;" horiz-adv-x="1429" d="M47 174q70 55 119 139t77.5 194.5t43 201t26.5 221.5l49 479h793l94 -1190l129 -45l-22 -506h-223l-11 332h-819l-10 -332h-223zM434 221h498l-66 971h-229l-25 -270q-20 -229 -58 -391t-120 -310z" />
<glyph unicode="&#x415;" horiz-adv-x="940" d="M133 0v1409h719v-223h-387v-359h338v-217h-338v-387h387v-223h-719z" />
<glyph unicode="&#x416;" horiz-adv-x="1814" d="M29 0l143 358q113 287 307 408l-422 643h326l367 -639h4v639h307v-639h4l367 639h325l-422 -643q195 -121 307 -408l144 -358h-350l-99 295q-51 152 -113.5 252t-162.5 147v-694h-307v694q-100 -47 -163 -147.5t-114 -251.5l-98 -295h-350z" />
<glyph unicode="&#x417;" horiz-adv-x="1036" d="M57 59l84 226q111 -66 260 -66q102 0 161 51.5t59 141.5q0 201 -316 200h-82v215h78q141 0 219 58.5t78 154.5q0 74 -54.5 119t-142.5 45q-119 0 -241 -59l-78 205q164 82 375 82q193 0 324.5 -89.5t131.5 -269.5q0 -102 -64.5 -187t-168.5 -122v-4q129 -41 202.5 -132 t73.5 -220q0 -199 -144 -315t-374 -116q-223 0 -381 82z" />
<glyph unicode="&#x418;" horiz-adv-x="1296" d="M133 0v1409h291v-745q0 -111 -6 -166h4q31 86 63 153l387 758h291v-1409h-293v782q0 100 9 168h-5q-33 -86 -67 -153l-406 -797h-268z" />
<glyph unicode="&#x419;" horiz-adv-x="1296" d="M133 0v1409h291v-745q0 -111 -6 -166h4q31 86 63 153l387 758h291v-1409h-293v782q0 100 9 168h-5q-33 -86 -67 -153l-406 -797h-268zM365 1823l129 20q8 -74 50 -113.5t107.5 -39.5t106.5 39.5t49 113.5l131 -20q0 -137 -78 -219t-209 -82t-208.5 82t-77.5 219z" />
<glyph unicode="&#x41a;" horiz-adv-x="1257" d="M137 0v1409h328v-639h4l383 639h348l-434 -643q199 -121 315 -408l148 -358h-373l-100 295q-109 311 -291 399v-694h-328z" />
<glyph unicode="&#x41b;" horiz-adv-x="1347" d="M14 225q70 39 116 98.5t70.5 147.5t35 163t20.5 200l43 575h836l112 -1409h-340l-76 1192h-231l-27 -361q-10 -135 -25.5 -233t-48 -201.5t-81.5 -178.5t-130 -143.5t-190 -117.5z" />
<glyph unicode="&#x41c;" horiz-adv-x="1636" d="M80 0l149 1409h326l223 -786q25 -88 39 -181h4q16 111 37 181l223 786h326l149 -1409h-311l-65 811q-8 111 -9 170h-4q-23 -111 -41 -170l-239 -811h-168l-234 811q-18 61 -43 170h-4v-25q0 -90 -6 -145l-74 -811h-278z" />
<glyph unicode="&#x41d;" horiz-adv-x="1286" d="M133 0v1409h332v-582h356v582h332v-1409h-332v610h-356v-610h-332z" />
<glyph unicode="&#x41e;" horiz-adv-x="1286" d="M90 704.5q0 327.5 140.5 527.5t412.5 200t412.5 -200t140.5 -527.5t-140.5 -527.5t-412.5 -200t-412.5 200t-140.5 527.5zM426 711q0 -496 217 -496t217 496q0 498 -217 497.5t-217 -497.5z" />
<glyph unicode="&#x41f;" horiz-adv-x="1286" d="M133 0v1409h1020v-1409h-332v1192h-356v-1192h-332z" />
<glyph unicode="&#x420;" horiz-adv-x="1179" d="M133 0v1352q180 80 428 80q279 0 414 -124t135 -327t-142.5 -330t-420.5 -127q-39 0 -88 8v-532h-326zM459 723q41 -6 88 -6q246 0 246 266q0 260 -230 260q-59 0 -104 -16v-504z" />
<glyph unicode="&#x421;" horiz-adv-x="1007" d="M90 704.5q0 143.5 33 270.5t98.5 230.5t175 165t250.5 61.5q184 0 307 -82l-71 -203q-76 45 -170 45q-76 0 -132.5 -41t-87 -111.5t-46 -153.5t-15.5 -177q0 -125 26.5 -228.5t92 -176.5t160.5 -73q92 0 166 45l77 -215q-125 -84 -307 -84q-141 0 -250.5 61.5t-175 165 t-98.5 230.5t-33 270.5z" />
<glyph unicode="&#x422;" horiz-adv-x="1001" d="M66 1186v223h870v-223h-270v-1186h-332v1186h-268z" />
<glyph unicode="&#x423;" horiz-adv-x="1179" d="M49 1409h348q51 -432 219 -752h5q145 350 192 752h317q-61 -516 -325 -991l-232 -418h-370l243 414q-332 455 -397 995z" />
<glyph unicode="&#x424;" horiz-adv-x="1572" d="M82 708.5q0 247.5 149.5 427t419.5 205.5v125h271v-125q270 -27 419.5 -206t149.5 -426.5t-149.5 -427t-419.5 -205.5v-133h-271v133q-270 27 -419.5 206t-149.5 426.5zM375 711q0 -168 70.5 -295.5t205.5 -143.5v877q-135 -14 -205.5 -142t-70.5 -296zM922 272 q135 16 205.5 143.5t70.5 295.5t-70.5 296t-205.5 142v-877z" />
<glyph unicode="&#x425;" horiz-adv-x="1148" d="M14 0l379 717l-346 692h352l183 -444h4l194 444h322l-344 -666l377 -743h-369l-199 481h-4l-209 -481h-340z" />
<glyph unicode="&#x426;" horiz-adv-x="1337" d="M133 0v1409h332v-1186h352v1186h332v-1190l129 -45l-23 -506h-223l-10 332h-889z" />
<glyph unicode="&#x427;" horiz-adv-x="1263" d="M125 903v506h332v-506q0 -180 180 -180q94 0 162 37v649h331v-1409h-331v547q-117 -53 -260 -53q-199 0 -306.5 105.5t-107.5 303.5z" />
<glyph unicode="&#x428;" horiz-adv-x="1896" d="M133 0v1409h320v-1186h335v1186h320v-1186h336v1186h319v-1409h-1630z" />
<glyph unicode="&#x429;" horiz-adv-x="1949" d="M133 0v1409h320v-1186h335v1186h320v-1186h336v1186h319v-1190l127 -45l-22 -506h-223l-11 332h-1501z" />
<glyph unicode="&#x42a;" horiz-adv-x="1417" d="M66 1186v223h587v-543q78 20 160 21q246 0 386 -115t140 -338q0 -219 -150.5 -338t-406.5 -119q-279 0 -452 80v1129h-264zM653 193q47 -18 127 -19q113 0 171.5 68.5t58.5 191.5q0 262 -232 262q-74 0 -125 -18v-485z" />
<glyph unicode="&#x42b;" horiz-adv-x="1761" d="M133 57v1352h324v-543q78 20 157 21q246 0 386.5 -115t140.5 -338q0 -219 -150.5 -338t-406.5 -119q-276 0 -451 80zM457 193q47 -18 127 -19q111 0 169 68.5t58 191.5q0 262 -229 262q-74 0 -125 -18v-485zM1305 0v1409h323v-1409h-323z" />
<glyph unicode="&#x42c;" horiz-adv-x="1220" d="M133 57v1352h324v-543q78 20 157 21q246 0 386.5 -115t140.5 -338q0 -219 -150.5 -338t-406.5 -119q-276 0 -451 80zM457 193q47 -18 127 -19q111 0 169 68.5t58 191.5q0 262 -229 262q-74 0 -125 -18v-485z" />
<glyph unicode="&#x42d;" horiz-adv-x="1071" d="M57 61l82 218q84 -47 197 -48q139 0 214 105.5t89 273.5h-446v217h446q-18 164 -92 264.5t-211 100.5q-117 0 -201 -45l-78 203q141 82 336 82q289 0 438.5 -204t149.5 -523.5t-149.5 -523.5t-438.5 -204q-190 0 -336 84z" />
<glyph unicode="&#x42e;" horiz-adv-x="1796" d="M133 0v1409h322v-582h229q25 279 151 442t353 163q254 0 384 -200t130 -527.5t-130 -527.5t-384 -200q-231 0 -359.5 172.5t-146.5 460.5h-227v-610h-322zM985 711q0 -496 203 -496q205 0 205 496q0 498 -205 497q-203 0 -203 -497z" />
<glyph unicode="&#x42f;" horiz-adv-x="1224" d="M41 0l238 440q63 121 137 189v4q-150 43 -234 137t-84 234q0 213 147.5 320.5t420.5 107.5q246 0 421 -80v-1352h-321v602q-106 -47 -168 -180l-190 -422h-367zM422 991q0 -113 66.5 -187.5t183.5 -74.5q57 0 94 10v488q-43 16 -109 16q-236 0 -235 -252z" />
<glyph unicode="&#x430;" horiz-adv-x="1110" d="M72 328q0 98 47 170.5t136 116.5t193.5 69t241.5 37v49q0 154 -190 154q-152 0 -295 -70l-70 188q188 84 412 84q442 0 442 -403v-664q-158 -82 -432 -82q-238 0 -361.5 89.5t-123.5 261.5zM371 340q0 -184 202 -184q76 0 117 20v395q-164 -16 -241.5 -71.5t-77.5 -159.5 z" />
<glyph unicode="&#x431;" horiz-adv-x="1153" d="M86 647q0 213 60.5 391.5t192.5 305t318 155.5l314 51v-217l-234 -43q-193 -37 -274 -248q63 16 135 17q217 0 345 -142.5t128 -390.5q0 -238 -132 -393.5t-359 -155.5q-494 0 -494 670zM401 647q0 -240 42 -351.5t137 -111.5q88 0 131 95t43 247q0 362 -211 363 q-57 0 -125 -23q-16 -111 -17 -219z" />
<glyph unicode="&#x432;" horiz-adv-x="1165" d="M121 59v988q176 80 420 79q516 0 516 -295q0 -96 -64.5 -162.5t-163.5 -86.5v-4q115 -27 189 -100t74 -175q0 -326 -547 -326q-244 0 -424 82zM436 162q49 -18 117 -19q219 0 219 176q0 188 -250 189h-86v-346zM436 633h86q230 0 230 176q0 162 -203 162q-66 0 -113 -19 v-319z" />
<glyph unicode="&#x433;" horiz-adv-x="843" d="M125 0v1104h657v-207h-338v-897h-319z" />
<glyph unicode="&#x434;" horiz-adv-x="1298" d="M39 164q100 78 146 204t65 314l45 422h762l86 -897l108 -41l-22 -465h-219l-11 299h-708l-12 -299h-220zM408 199h432l-60 723h-213l-24 -240q-31 -313 -135 -483z" />
<glyph unicode="&#x435;" horiz-adv-x="1142" d="M82 555q0 262 134 416.5t372 154.5q229 0 351 -142t122 -400q0 -25 -2 -47l-664 -95q16 -117 88 -181t189 -64q156 0 278 63l74 -201q-164 -82 -403 -82q-258 0 -398.5 159t-140.5 419zM373 598l385 59q-4 283 -183 283q-96 0 -149 -85t-53 -228v-29z" />
<glyph unicode="&#x436;" horiz-adv-x="1660" d="M29 0l123 281q100 229 270 319l-369 504h314l313 -498h4v498h293v-498h4l311 498h316l-369 -504q170 -90 270 -319l123 -281h-332l-81 231q-43 121 -96.5 198t-145.5 116v-545h-293v545q-92 -39 -145.5 -116t-96.5 -198l-82 -231h-331z" />
<glyph unicode="&#x437;" horiz-adv-x="970" d="M53 57l68 185q109 -57 244 -58q96 0 149 42t53 102q0 61 -58 103t-165 42h-154v182h144q98 0 155.5 44t57.5 106q0 53 -45 88t-133 35q-123 0 -238 -56l-68 175q162 80 369 79q209 0 319.5 -84t110.5 -200q0 -82 -53 -153t-152 -105v-4q115 -35 177.5 -114t62.5 -171 q0 -129 -121 -223.5t-340 -94.5q-231 0 -383 80z" />
<glyph unicode="&#x438;" horiz-adv-x="1189" d="M121 0v1104h274v-553q0 -96 -6 -143h4q18 51 62 129l319 567h295v-1104h-274v586q0 94 6 143h-4q-20 -57 -62 -129l-338 -600h-276z" />
<glyph unicode="&#x439;" horiz-adv-x="1189" d="M121 0v1104h274v-553q0 -96 -6 -143h4q18 51 62 129l319 567h295v-1104h-274v586q0 94 6 143h-4q-20 -57 -62 -129l-338 -600h-276zM309 1518l129 20q8 -74 50 -114t108 -40t106.5 40t49.5 114l131 -20q0 -137 -78 -219t-209 -82t-209 81.5t-78 219.5z" />
<glyph unicode="&#x43a;" horiz-adv-x="1175" d="M123 0v1104h317v-498h4l342 498h340l-399 -504q186 -100 289 -319l131 -281h-354l-93 231q-96 244 -260 312v-543h-317z" />
<glyph unicode="&#x43b;" horiz-adv-x="1228" d="M12 211q102 51 139 149.5t52 253.5l41 490h796l107 -1104h-326l-73 920h-211l-27 -306q-10 -127 -30.5 -214t-65.5 -174t-125 -150.5t-201 -110.5z" />
<glyph unicode="&#x43c;" horiz-adv-x="1486" d="M76 0l133 1104h317l185 -606q18 -59 30 -142h4q16 86 33 142l183 606h319l131 -1104h-299l-53 623q-4 43 -4 112v31h-4q-14 -76 -37 -143l-199 -623h-174l-190 623q-18 61 -37 143h-4q0 -61 -7 -143l-55 -623h-272z" />
<glyph unicode="&#x43d;" horiz-adv-x="1183" d="M121 0v1104h319v-453h303v453h320v-1104h-320v469h-303v-469h-319z" />
<glyph unicode="&#x43e;" horiz-adv-x="1159" d="M82 553q0 258 129 415.5t368.5 157.5t368.5 -157.5t129 -415.5q0 -260 -129 -418t-368.5 -158t-368.5 158t-129 418zM401 559q0 -375 178.5 -375t178.5 375q0 371 -178.5 371t-178.5 -371z" />
<glyph unicode="&#x43f;" horiz-adv-x="1183" d="M121 0v1104h942v-1104h-320v920h-303v-920h-319z" />
<glyph unicode="&#x440;" horiz-adv-x="1171" d="M125 -440v1487q174 80 418 79q260 0 403.5 -145.5t143.5 -419.5q0 -264 -133.5 -419.5t-352.5 -155.5q-111 0 -160 18v-444h-319zM444 188q41 -12 84 -12q246 0 246 381q0 190 -54 285.5t-179 95.5q-53 0 -97 -16v-734z" />
<glyph unicode="&#x441;" horiz-adv-x="884" d="M82 553q0 264 131 418.5t338 154.5q170 0 278 -79l-67 -177q-55 43 -137 43q-98 0 -157.5 -95t-59.5 -259t59 -259t158 -95q80 0 135 43l69 -191q-109 -80 -278 -80q-209 0 -339 155t-130 421z" />
<glyph unicode="&#x442;" horiz-adv-x="909" d="M63 897v207h783v-207h-232v-897h-319v897h-232z" />
<glyph unicode="&#x443;" horiz-adv-x="1120" d="M55 1104h328q47 -467 199 -823h4q125 381 168 823h311q-59 -575 -303 -1088l-217 -456h-348l229 452q-311 500 -371 1092z" />
<glyph unicode="&#x444;" horiz-adv-x="1593" d="M84 551q0 254 112.5 412.5t303.5 158.5q80 0 153 -43v529h287v-529q74 43 154 43q190 0 302.5 -158.5t112.5 -412.5t-112.5 -412.5t-302.5 -158.5q-80 0 -154 43v-463h-287v463q-74 -43 -153 -43q-190 0 -303 158.5t-113 412.5zM379 555q0 -174 46 -275.5t138 -101.5 q51 1 90 21v712q-39 20 -90 21q-92 0 -138 -101.5t-46 -275.5zM940 199q39 -20 90 -21q92 0 138 101.5t46 275.5t-46 275.5t-138 101.5q-51 0 -90 -21v-712z" />
<glyph unicode="&#x445;" horiz-adv-x="1073" d="M16 0l351 561l-316 543h334l164 -330h4l168 330h301l-313 -522l348 -582h-352l-179 354h-4l-178 -354h-328z" />
<glyph unicode="&#x446;" horiz-adv-x="1216" d="M121 0v1104h319v-897h291v897h320v-897l108 -41l-22 -465h-219l-11 299h-786z" />
<glyph unicode="&#x447;" horiz-adv-x="1161" d="M111 737v367h319v-367q0 -160 154 -159q68 0 137 34v492h319v-1104h-319v426q-113 -53 -227 -53q-182 0 -282.5 95t-100.5 269z" />
<glyph unicode="&#x448;" horiz-adv-x="1708" d="M121 0v1104h307v-897h272v897h308v-897h272v897h307v-1104h-1466z" />
<glyph unicode="&#x449;" horiz-adv-x="1753" d="M121 0v1104h307v-897h272v897h308v-897h272v897h307v-897l109 -41l-21 -465h-219l-12 299h-1323z" />
<glyph unicode="&#x44a;" horiz-adv-x="1327" d="M63 897v207h547v-432q72 16 144 16q233 0 366 -88t133 -264q0 -170 -142 -264.5t-386 -94.5q-248 0 -432 82v838h-230zM610 162q47 -18 115 -19q211 0 211 192.5t-215 192.5q-57 0 -111 -14v-352z" />
<glyph unicode="&#x44b;" horiz-adv-x="1660" d="M121 59v1045h317v-432q72 16 144 16q233 0 366 -88t133 -264q0 -170 -142 -264.5t-386 -94.5q-248 0 -432 82zM438 162q47 -18 115 -19q211 0 211 192.5t-215 192.5q-57 0 -111 -14v-352zM1223 0v1104h317v-1104h-317z" />
<glyph unicode="&#x44c;" horiz-adv-x="1155" d="M121 59v1045h317v-432q72 16 144 16q233 0 366 -88t133 -264q0 -170 -142 -264.5t-386 -94.5q-248 0 -432 82zM438 162q47 -18 115 -19q211 0 211 192.5t-215 192.5q-57 0 -111 -14v-352z" />
<glyph unicode="&#x44d;" horiz-adv-x="993" d="M53 57l70 183q78 -49 196 -50q117 0 186.5 77t86.5 204h-410v184h412q-18 123 -88 196t-187 73q-115 0 -196 -52l-70 175q135 80 324 79q260 0 397 -164.5t137 -410.5q0 -244 -137 -409t-397 -165q-188 0 -324 80z" />
<glyph unicode="&#x44e;" horiz-adv-x="1667" d="M121 0v1104h309v-453h201q25 217 145.5 346t327.5 129q231 0 356 -157.5t125 -415.5t-125 -417t-356 -159q-211 0 -333 134.5t-142 361.5h-199v-473h-309zM926 559q0 -375 178 -375t178 375q0 371 -178 371t-178 -371z" />
<glyph unicode="&#x44f;" horiz-adv-x="1148" d="M37 0l196 344q51 92 129 148v4q-131 31 -205.5 103.5t-74.5 186.5q0 170 141.5 255t388.5 85q238 0 414 -79v-1047h-315v471q-117 -39 -166 -141l-158 -330h-350zM399 766q0 -88 60.5 -144.5t158.5 -56.5q38 0 93 10v373q-43 16 -105 17q-207 0 -207 -199z" />
<glyph unicode="&#x450;" horiz-adv-x="1142" d="M82 555q0 262 134 416.5t372 154.5q229 0 351 -142t122 -400q0 -25 -2 -47l-664 -95q16 -117 88 -181t189 -64q156 0 278 63l74 -201q-164 -82 -403 -82q-258 0 -398.5 159t-140.5 419zM352 1501q41 55 140 55q90 0 155 -43l144 -292h-177zM373 598l385 59 q-4 283 -183 283q-96 0 -149 -85t-53 -228v-29z" />
<glyph unicode="&#x451;" horiz-adv-x="1142" d="M82 555q0 262 134 416.5t372 154.5q229 0 351 -142t122 -400q0 -25 -2 -47l-664 -95q16 -117 88 -181t189 -64q156 0 278 63l74 -201q-164 -82 -403 -82q-258 0 -398.5 159t-140.5 419zM260 1358q0 53 39 92t92 39t92 -39t39 -92t-39 -92t-92 -39t-92 39t-39 92zM373 598 l385 59q-4 283 -183 283q-96 0 -149 -85t-53 -228v-29zM639 1358q0 53 39 92t92 39t92 -39t39 -92t-39 -92t-92 -39t-92 39t-39 92z" />
<glyph unicode="&#x452;" horiz-adv-x="1196" d="M-20 1200v176h141v232h319v-232h361v-176h-361v-231q100 45 205 45q229 0 349 -167t120 -429t-130 -494.5t-363 -322.5l-101 206q129 47 200 210t71 360q0 201 -57.5 321.5t-174.5 120.5q-63 0 -119 -26v-793h-319v1200h-141z" />
<glyph unicode="&#x453;" horiz-adv-x="843" d="M125 0v1104h657v-207h-338v-897h-319zM313 1221l144 292q66 43 155 43q101 0 140 -55l-263 -280h-176z" />
<glyph unicode="&#x454;" horiz-adv-x="993" d="M82 551q0 246 137 410.5t397 164.5q188 0 324 -79l-70 -175q-82 51 -196.5 51.5t-184 -72.5t-88.5 -196h412v-184h-412q16 -127 86 -204t187 -77q119 0 196 50l70 -183q-135 -80 -324 -80q-260 0 -397 165t-137 409z" />
<glyph unicode="&#x455;" horiz-adv-x="913" d="M61 57l84 197q109 -63 215 -64q68 0 110 35t42 88q0 51 -44 88t-106.5 64t-125 59.5t-106.5 100t-44 163.5q0 154 110.5 246t274.5 92q203 0 338 -79l-76 -177q-98 57 -192 58q-66 0 -102 -33t-36 -84q0 -49 45.5 -85t109 -62.5t127 -60.5t108.5 -102.5t45 -164.5 q0 -158 -119 -258.5t-318 -100.5q-211 0 -340 80z" />
<glyph unicode="&#x456;" d="M117 1421.5q0 63.5 49 106.5t120.5 43t121 -43t49.5 -106.5t-50.5 -107.5t-120 -44t-119.5 44t-50 107.5zM127 0v1104h319v-1104h-319z" />
<glyph unicode="&#x457;" d="M-33 1356q0 53 39 92t92.5 39t92 -39t38.5 -92t-38.5 -92t-92 -39t-92.5 39t-39 92zM127 0v1104h319v-1104h-319zM344 1356q0 53 39 92t92 39t92 -39t39 -92t-39 -92t-92 -39t-92 39t-39 92z" />
<glyph unicode="&#x458;" horiz-adv-x="577" d="M-51 -238q98 43 140 129t42 236v977h320v-938q0 -270 -129 -428t-373 -189v213zM121 1421.5q0 63.5 49 106.5t120.5 43t121 -44.5t49.5 -105.5q0 -63 -50.5 -107t-119.5 -44q-72 0 -121 44t-49 107.5z" />
<glyph unicode="&#x459;" horiz-adv-x="1824" d="M12 211q102 51 139 149.5t52 253.5l41 490h798l37 -436q88 20 172 20q233 0 366.5 -86t133.5 -266q0 -170 -141.5 -264.5t-382.5 -94.5q-229 0 -410 82l-69 861h-211l-27 -306q-10 -127 -30.5 -214t-65.5 -174t-125 -150.5t-201 -110.5zM1092 512l30 -352q45 -16 103 -17 q207 0 207 192.5t-213 192.5q-76 0 -127 -16z" />
<glyph unicode="&#x45a;" horiz-adv-x="1773" d="M121 0v1104h315v-453h303v453h318v-432q72 16 143 16q233 0 366.5 -88t133.5 -264q0 -170 -142.5 -264.5t-386.5 -94.5q-248 0 -432 82v410h-303v-469h-315zM1057 162q47 -18 114 -19q211 0 211 192.5t-215 192.5q-57 0 -110 -14v-352z" />
<glyph unicode="&#x45b;" horiz-adv-x="1185" d="M-20 1200v176h141v232h319v-232h353v-176h-353v-237q109 51 238 51q184 0 285.5 -96.5t101.5 -278.5v-639h-320v639q0 180 -165 180q-76 0 -140 -35v-784h-319v1200h-141z" />
<glyph unicode="&#x45c;" horiz-adv-x="1175" d="M123 0v1104h317v-498h4l342 498h340l-399 -504q186 -100 289 -319l131 -281h-354l-93 231q-96 244 -260 312v-543h-317zM461 1221l143 292q66 43 156 43q100 0 139 -55l-262 -280h-176z" />
<glyph unicode="&#x45d;" horiz-adv-x="1189" d="M121 0v1104h274v-553q0 -96 -6 -143h4q18 51 62 129l319 567h295v-1104h-274v586q0 94 6 143h-4q-20 -57 -62 -129l-338 -600h-276zM303 1501q41 55 139 55q90 0 156 -43l143 -292h-176z" />
<glyph unicode="&#x45e;" horiz-adv-x="1120" d="M55 1104h328q47 -467 199 -823h4q125 381 168 823h311q-59 -575 -303 -1088l-217 -456h-348l229 452q-311 500 -371 1092zM287 1518l129 20q8 -74 50 -114t107.5 -40t106.5 40t49 114l131 -20q0 -137 -77.5 -219t-209 -82t-209 81.5t-77.5 219.5z" />
<glyph unicode="&#x45f;" horiz-adv-x="1171" d="M121 0v1104h319v-897h291v897h320v-1104h-342l-13 -299h-219l-14 299h-342z" />
<glyph unicode="&#x490;" horiz-adv-x="962" d="M137 0v1409h522l31 270h211v-493h-432v-1186h-332z" />
<glyph unicode="&#x491;" horiz-adv-x="872" d="M125 0v1104h461l28 258h197v-465h-367v-897h-319z" />
<glyph unicode="&#x492;" horiz-adv-x="980" d="M37 631v198h123v580h760v-223h-428v-357h235v-198h-235v-631h-332v631h-123z" />
<glyph unicode="&#x493;" horiz-adv-x="864" d="M37 477v176h108v451h658v-207h-338v-244h197v-176h-197v-477h-320v477h-108z" />
<glyph unicode="&#x496;" horiz-adv-x="1873" d="M29 0l143 358q113 287 307 408l-422 643h326l367 -639h4v639h307v-639h4l367 639h325l-422 -643q195 -121 307 -408l54 -133l139 -51l-20 -506h-226l-10 332h-143l-99 295q-51 152 -113.5 252t-162.5 147v-694h-307v694q-100 -47 -163 -147.5t-114 -251.5l-98 -295h-350z " />
<glyph unicode="&#x497;" horiz-adv-x="1697" d="M29 0l123 281q100 229 270 319l-369 504h314l313 -498h4v498h293v-498h4l311 498h316l-369 -504q170 -90 270 -319l31 -70l119 -45l-23 -465h-217l-12 299h-107l-81 231q-43 121 -96.5 198t-145.5 116v-545h-293v545q-92 -39 -145.5 -116t-96.5 -198l-82 -231h-331z" />
<glyph unicode="&#x49a;" horiz-adv-x="1316" d="M137 0v1409h328v-639h4l383 639h348l-434 -643q193 -119 315 -408l56 -133l141 -51l-21 -506h-225l-10 332h-166l-100 295q-109 311 -291 399v-694h-328z" />
<glyph unicode="&#x49b;" horiz-adv-x="1206" d="M123 0v1104h317v-498h4l342 498h340l-399 -504q195 -104 289 -319l31 -70l120 -45l-20 -465h-219l-10 299h-125l-93 231q-96 244 -260 312v-543h-317z" />
<glyph unicode="&#x4a2;" horiz-adv-x="1341" d="M133 0v1409h332v-582h356v582h332v-1190l129 -45l-22 -506h-224l-10 332h-205v610h-356v-610h-332z" />
<glyph unicode="&#x4a3;" horiz-adv-x="1228" d="M121 0v1104h319v-453h303v453h320v-897l108 -41l-20 -465h-219l-12 299h-177v469h-303v-469h-319z" />
<glyph unicode="&#x4ae;" horiz-adv-x="1089" d="M4 1409h348l203 -532h4l213 532h315l-376 -817v-592h-332v592z" />
<glyph unicode="&#x4af;" horiz-adv-x="1118" d="M29 1104h346l164 -666q16 -72 24 -172h4q10 92 33 172l176 666h314l-371 -1104v-440h-320v440z" />
<glyph unicode="&#x4b0;" horiz-adv-x="1089" d="M4 1409h348l203 -532h4l213 532h315l-376 -817h204v-199h-204v-393h-332v393h-205v199h205z" />
<glyph unicode="&#x4b1;" horiz-adv-x="1118" d="M29 1104h346l164 -666q16 -72 24 -172h4q10 92 33 172l176 666h314l-373 -1104h201v-174h-201v-266h-316v266h-198v174h198z" />
<glyph unicode="&#x4b2;" horiz-adv-x="1191" d="M14 0l379 717l-346 692h352l183 -444h4l194 444h322l-344 -666l268 -524l127 -45l-23 -506h-223l-10 332h-131l-199 481h-4l-209 -481h-340z" />
<glyph unicode="&#x4b3;" horiz-adv-x="1091" d="M16 0l351 561l-316 543h334l164 -330h4l168 330h301l-313 -522l219 -369l125 -47l-21 -465h-219l-12 299h-96l-179 354h-4l-178 -354h-328z" />
<glyph unicode="&#x4b6;" horiz-adv-x="1316" d="M125 903v506h332v-506q0 -180 180 -180q94 0 162 37v649h331v-1190l127 -45l-20 -506h-225l-11 332h-202v547q-117 -53 -260 -53q-199 0 -306.5 105.5t-107.5 303.5z" />
<glyph unicode="&#x4b7;" horiz-adv-x="1206" d="M111 737v367h319v-367q0 -160 154 -159q68 0 137 34v492h319v-897l109 -41l-23 -465h-217l-12 299h-176v426q-113 -53 -227 -53q-182 0 -282.5 95t-100.5 269z" />
<glyph unicode="&#x4ba;" horiz-adv-x="1263" d="M133 0v1409h332v-530q117 53 254 53q205 0 312.5 -105.5t107.5 -308.5v-518h-332v518q0 193 -186 193q-88 0 -156 -37v-674h-332z" />
<glyph unicode="&#x4bb;" horiz-adv-x="1185" d="M121 0v1608h319v-539q109 51 236 51q184 0 286.5 -93t102.5 -273v-754h-320v754q0 172 -165 172q-76 0 -140 -35v-891h-319z" />
<glyph unicode="&#x4c0;" horiz-adv-x="604" d="M137 0v1409h332v-1409h-332z" />
<glyph unicode="&#x4cf;" d="M127 0v1608h319v-1608h-319z" />
<glyph unicode="&#x4d8;" horiz-adv-x="1282" d="M90 745l762 111q-16 152 -96 246t-228 94q-174 0 -315 -78l-78 213q182 100 436 101q303 0 462 -199t159 -531q0 -334 -147.5 -529.5t-418 -195.5t-403.5 200t-133 568zM422 604q0 -387 217 -387q236 0 235 438v23z" />
<glyph unicode="&#x4d9;" horiz-adv-x="1142" d="M82 588l666 96q-16 106 -89 167.5t-188 61.5q-152 0 -278 -65l-74 194q168 84 403 84q258 0 398.5 -158.5t140.5 -418.5q0 -264 -132 -418t-370 -154q-242 0 -359.5 160t-117.5 451zM385 467q4 -297 186 -297q96 0 147.5 86t51.5 238v34z" />
<glyph unicode="&#x4e2;" horiz-adv-x="1296" d="M133 0v1409h291v-745q0 -111 -6 -166h4q31 86 63 153l387 758h291v-1409h-293v782q0 100 9 168h-5q-33 -86 -67 -153l-406 -797h-268zM356 1552v166h582v-166h-582z" />
<glyph unicode="&#x4e3;" horiz-adv-x="1189" d="M121 0v1104h274v-553q0 -96 -6 -143h4q18 51 62 129l319 567h295v-1104h-274v586q0 94 6 143h-4q-20 -57 -62 -129l-338 -600h-276zM303 1247v166h582v-166h-582z" />
<glyph unicode="&#x4e8;" horiz-adv-x="1284" d="M90 704.5q0 327.5 140.5 527.5t412.5 200t411.5 -200t139.5 -527.5t-139.5 -527.5t-411.5 -200t-412.5 200t-140.5 527.5zM408 618q14 -414 235 -413q220 -1 234 413h-469zM408 823h469q-20 395 -234 396q-215 0 -235 -396z" />
<glyph unicode="&#x4e9;" horiz-adv-x="1159" d="M82 553q0 258 129 415.5t368.5 157.5t368.5 -157.5t129 -415.5q0 -260 -129 -418t-368.5 -158t-368.5 158t-129 418zM383 483q18 -309 196.5 -309t196.5 309h-393zM383 645h393q-20 297 -196.5 297t-196.5 -297z" />
<glyph unicode="&#x4ee;" horiz-adv-x="1179" d="M49 1409h348q51 -432 219 -752h5q145 350 192 752h317q-61 -516 -325 -991l-232 -418h-370l243 414q-332 455 -397 995zM311 1552v166h582v-166h-582z" />
<glyph unicode="&#x4ef;" horiz-adv-x="1120" d="M55 1104h328q47 -467 199 -823h4q125 381 168 823h311q-59 -575 -303 -1088l-217 -456h-348l229 452q-311 500 -371 1092zM279 1247v166h581v-166h-581z" />
<glyph unicode="&#x2000;" horiz-adv-x="931" />
<glyph unicode="&#x2001;" horiz-adv-x="1862" />
<glyph unicode="&#x2002;" horiz-adv-x="931" />
<glyph unicode="&#x2003;" horiz-adv-x="1862" />
<glyph unicode="&#x2004;" horiz-adv-x="620" />
<glyph unicode="&#x2005;" horiz-adv-x="465" />
<glyph unicode="&#x2006;" horiz-adv-x="310" />
<glyph unicode="&#x2007;" horiz-adv-x="310" />
<glyph unicode="&#x2008;" horiz-adv-x="232" />
<glyph unicode="&#x2009;" horiz-adv-x="372" />
<glyph unicode="&#x200a;" horiz-adv-x="103" />
<glyph unicode="&#x2010;" horiz-adv-x="729" d="M98 549v233h533v-233h-533z" />
<glyph unicode="&#x2011;" horiz-adv-x="729" d="M98 549v233h533v-233h-533z" />
<glyph unicode="&#x2012;" horiz-adv-x="729" d="M98 549v233h533v-233h-533z" />
<glyph unicode="&#x2013;" horiz-adv-x="835" d="M0 553v225h836v-225h-836z" />
<glyph unicode="&#x2014;" horiz-adv-x="1671" d="M0 557v217h1671v-217h-1671z" />
<glyph unicode="&#x2018;" horiz-adv-x="622" d="M78 1063l303 545h168l-174 -545q-57 -96 -172 -96q-104 0 -125 96z" />
<glyph unicode="&#x2019;" horiz-adv-x="622" d="M74 983l174 545q57 96 172 96q105 0 125 -96l-303 -545h-168z" />
<glyph unicode="&#x201a;" horiz-adv-x="622" d="M74 -297l174 545q57 96 172 96q105 0 125 -96l-303 -545h-168z" />
<glyph unicode="&#x201c;" horiz-adv-x="1064" d="M78 1063l303 545h168l-174 -545q-57 -96 -172 -96q-104 0 -125 96zM520 1063l303 545h168l-174 -545q-57 -96 -172 -96q-104 0 -125 96z" />
<glyph unicode="&#x201d;" horiz-adv-x="1064" d="M74 983l174 545q57 96 172 96q105 0 125 -96l-303 -545h-168zM516 983l174 545q57 96 172 96q105 0 125 -96l-303 -545h-168z" />
<glyph unicode="&#x201e;" horiz-adv-x="1064" d="M74 -297l174 545q57 96 172 96q105 0 125 -96l-303 -545h-168zM516 -297l174 545q57 96 172 96q105 0 125 -96l-303 -545h-168z" />
<glyph unicode="&#x2022;" horiz-adv-x="802" d="M111 743.5q0 120.5 85 205.5t205.5 85t205.5 -85t85 -205.5t-85 -205.5t-205.5 -85t-205.5 85t-85 205.5z" />
<glyph unicode="&#x2026;" horiz-adv-x="1732" d="M106 164q0 76 53.5 129t129.5 53t129 -53t53 -129t-53 -129t-129 -53t-129.5 53t-53.5 129zM684 164q0 76 53.5 129t129 53t129 -53t53.5 -129t-53.5 -129t-129 -53t-129 53t-53.5 129zM1262 164q0 76 53 129t129 53t129 -53t53 -129t-53 -129t-129 -53t-129 53t-53 129z " />
<glyph unicode="&#x202f;" horiz-adv-x="372" />
<glyph unicode="&#x2039;" horiz-adv-x="630" d="M74 684l284 494l179 -101l-226 -393l226 -391l-179 -103z" />
<glyph unicode="&#x203a;" horiz-adv-x="630" d="M94 293l225 391l-225 393l178 101l285 -494l-285 -494z" />
<glyph unicode="&#x205f;" horiz-adv-x="465" />
<glyph unicode="&#x20ac;" horiz-adv-x="1339" d="M113 494v133h194q-2 25 -2 78q0 35 4 100h-196v133h219q53 223 205.5 359.5t392.5 136.5q207 0 323 -82l-69 -193q-76 45 -193 45q-248 0 -327 -266h434v-133h-459q-6 -49 -6 -96q0 -29 4 -82h461v-133h-436q80 -272 329 -273q111 0 189 43l73 -205q-119 -84 -323 -84 q-254 0 -405.5 141.5t-198.5 377.5h-213z" />
<glyph unicode="&#x2122;" horiz-adv-x="1646" d="M61 1266v143h547v-143h-168v-676h-211v676h-168zM647 590l92 819h207l131 -442q14 -49 23 -103h4q6 43 22 103l134 442h204l92 -819h-198l-37 459q-4 57 -4 96h-4q-8 -47 -23 -96l-143 -459h-107l-139 459q-10 37 -24 96h-5q0 -39 -4 -96l-43 -459h-178z" />
<glyph unicode="&#x25fc;" horiz-adv-x="1105" d="M0 1105h1105v-1105h-1105v1105z" />
</font>
</defs>
</svg>
